<?xml version="1.0" encoding="utf-8"?>
<!-- Generator: Adobe Illustrator 19.1.0, SVG Export Plug-In . SVG Version: 6.00 Build 0)  -->
<svg version="1.1" id="Layer_1" xmlns="http://www.w3.org/2000/svg" xmlns:xlink="http://www.w3.org/1999/xlink" x="0px" y="0px"
	 viewBox="0 0 1080 1080" style="enable-background:new 0 0 1080 1080;" xml:space="preserve">
<style type="text/css">
	.st0{fill:#E80C0E;}
	.st1{font-family:'Poppins-SemiBold';}
	.st2{font-size:188.4064px;}
	.st3{letter-spacing:-14;}
	.st4{font-family:'Poppins-Regular';}
	.st5{font-size:81.2097px;}
</style>
<g>
	<path class="st0" d="M226.9,458h-47.8l-60.2,138.6c0,0,61.6,15,83.4-31.2c0,0,12.3,41.9,84,31.2L226.9,458z M202.5,563.9
		c0,0-28.2-1.9-28.2-27.9h24.8c-6.4-1-11.1-6.7-11.1-13.2c0-0.4,0-0.8,0-0.8h29c0,0,0,0.4,0,0.8c0,6.5-4.8,12.2-11.1,13.2h24.8
		C230.8,536,230.8,561.5,202.5,563.9z"/>
	<text transform="matrix(1 0 0 1 286.3636 599.2565)" class="st0 st1 st2 st3">Anchor</text>
	<text transform="matrix(1 0 0 1 911.5249 521.6392)" class="st0 st4 st5">It</text>
</g>
</svg>
